<svg id="analysis-icon" xmlns="http://www.w3.org/2000/svg" width="24" height="24" viewBox="0 0 24 24">
  <rect id="Box" width="24" height="24" fill="none"/>
  <path id="Path_2045" data-name="Path 2045" d="M589.9,63a1.075,1.075,0,0,1-1-1V60a1,1,0,0,1,2,0v2A1,1,0,0,1,589.9,63Zm-4,0a1.075,1.075,0,0,1-1-1V54a1,1,0,0,1,2,0v8A1,1,0,0,1,585.9,63Zm-4,0a1.075,1.075,0,0,1-1-1V57a1,1,0,0,1,2,0v5A1,1,0,0,1,581.9,63Zm11-14h-14a2.006,2.006,0,0,0-2,2V65a2.006,2.006,0,0,0,2,2h14a2.006,2.006,0,0,0,2-2V51A2.006,2.006,0,0,0,592.9,49Z" transform="translate(-574 -46)" fill="#9dc79f"/>
</svg>
